<svg xmlns="http://www.w3.org/2000/svg" viewBox="0 0 627 431.04"><defs><style>.cls-1,.cls-2{fill:#5d3523;}.cls-2{stroke:#5d3523;stroke-miterlimit:10;}</style></defs><title>logo</title><g id="レイヤー_2" data-name="レイヤー 2"><g id="レイヤー_3" data-name="レイヤー 3"><path class="cls-1" d="M115.73,195.69a118.9,118.9,0,0,0-26.38-3.14A97.33,97.33,0,0,0,31.86,210.8V0h-4V213.85A84.7,84.7,0,0,0,6,239.91V0H2V249.39a40.12,40.12,0,0,0-2,10.82C-.5,278.75,8.64,299.39,31.1,301c17,1.05,28.21-11.75,31.35-16.19,1.57-2.61,2.61-6.53,1.3-8.1-.78-1-2.35-1.3-5.22.26-5.22,2.62-9.93,3.92-14.37,3.92-8.09,0-15.15-3.92-20.11-10.19-3.13-3.65-5.22-9.4-5.22-16.19,0-10.71,5.48-24.29,21.42-37.61,12.27-10.19,28.47-15.41,44.66-15.41,18.81,0,37.88,7.05,51.46,21.67,13.06,14.11,19.07,41,19.07,65.31,0,14.1-2.09,27.42-6,36.82-6.79,16.2-16.46,21.42-24.55,21.42a19.48,19.48,0,0,1-12.28-4.44A12.62,12.62,0,0,1,108.16,332c0-5.49,2.87-10.45,5-11.5a3.5,3.5,0,0,0,1.83-5c-.52-.78-2.09-1.3-4.7-.52-3.66,1.57-9.41,9.4-9.41,18.28a18.33,18.33,0,0,0,7.58,15.15,26.9,26.9,0,0,0,17.24,5.75c13.58,0,29.25-8.62,40-24.82,8.88-13.06,14.63-32.38,14.63-52.24C180.25,243,163.27,206.66,115.73,195.69Z"/><path class="cls-1" d="M114.69,224.94c5.75-7.31-2.35-6.27-7-2.09-7.58,6.53-17,19.33-26.39,47.8-10.44,32.39-18,105.53-23.5,122.77-3.92,12.54-6.53,21.16-9.67,26.12-3.13,5.22,1.05,5.48,4.18,6,3.14.26,18.55,0,20.9,0s4.7.52,6.53-3.92c2.09-4.7,7.83-20.64,11.49-48.06,4.18-32.13,6-87.77,10.19-113.36C103.72,246.1,108.68,232.52,114.69,224.94Z"/><path class="cls-1" d="M626.12,362.07a2.48,2.48,0,0,0-4.18.53c-1.57,3.91-9.93,15.67-21.94,21.68-9.41,4.7-16.46,7.05-23,7.05a28.48,28.48,0,0,1-12-2.61c-5.23-2.09-10.19-6.79-11.76-15.94a104.85,104.85,0,0,0,24.29-8.88c19.33-9.4,31.09-23,31.09-34.74a16.79,16.79,0,0,0-2.61-8.62,15.54,15.54,0,0,0-1-1.4V0h-4V315.55c-4-2.57-9.26-3.63-14.85-3.63a53.11,53.11,0,0,0-9.15.86V0h-3.85V313.59A56.8,56.8,0,0,0,560,318.45c-13.06,7.32-26.9,19.33-29.77,40a33.23,33.23,0,0,0,1.31,15,81,81,0,0,1-5,6.65c-3.92,4.18-13.32,11.49-20.89,9.4-3.14-1-4.45-5.22-4.45-11.75,0-11.24,3.66-28.74,6.8-46.24,1.82-8.62,3.39-17.5,5.22-25.86h15.15a4.4,4.4,0,0,0,4.44-4.44,4.35,4.35,0,0,0-4.44-4.17H515.11c2.87-13.59,5.48-24.3,6.53-28,1.83-6.27-2.35-9.67-5.75-10.19-3.65-.26-6.53,1-9.4,6.27-1.57,3.13-5.23,16.19-9.14,31.87h-9.93a4.48,4.48,0,0,0-4.18,2.83,4.46,4.46,0,0,0-4.18-2.83H465.74c2.87-13.59,5.49-24.3,6.53-28,1.83-6.27-2.35-9.67-5.75-10.19-3.65-.26-6.53,1-9.4,6.27-1.57,3.13-5.22,16.19-9.14,31.87h-9.93a4.35,4.35,0,0,0-4.44,4.17,4.4,4.4,0,0,0,4.44,4.44h7.58c-2.09,9.41-4.44,18.81-6.27,27.17-2.69,12.22-4.44,23.5-4.66,33-3.34,5.21-10.58,13.63-20.15,18.42-9.4,4.7-16.46,7.05-23,7.05a28.48,28.48,0,0,1-12-2.61c-5.23-2.09-10.19-6.79-11.76-15.94a105.05,105.05,0,0,0,24.3-8.88c19.32-9.4,31.08-23,31.08-34.74a16.79,16.79,0,0,0-2.61-8.62c-3.92-6.26-11.5-8.62-19.86-8.62a59.5,59.5,0,0,0-26.12,6.53c-13.06,7.32-26.9,19.33-29.77,40A33.25,33.25,0,0,0,346,373.13a64.21,64.21,0,0,1-4.35,5.14c-5,5.22-12.53,12-20.89,9.4-3.92-1.3-5.75-12.54-5.75-28.47,0-5,.26-10.45.52-15.93,13.33-15.67,30.3-49.63,34.48-63.73,2.62-8.89,7.32-28.21,7.32-44.15,0-12.54-2.88-22.72-11.76-24-20.11-2.61-36,42.58-46.23,91.94-3.66,17.77-5.48,34-5.48,47.8q0,6.38.51,12a4.24,4.24,0,0,0-.52.76A73,73,0,0,1,285,377.75c-5.22,6.26-13.58,13.58-18.8,11-2.09-1.05-2.88-4.71-2.88-9.93,0-7.84,1.83-19.07,3.4-27.16,2.61-13.59,7.31-28.47,8.88-35.53.52-2.61-3.66-3.65-6.79-3.92-2.87-.26-6,0-9.67,3.92a71.14,71.14,0,0,0-4.44,8.36,27.69,27.69,0,0,0-9.92-10.18c-2.87-1.83-6.79-2.62-11.23-2.62-14.11,0-34.22,9.15-45.19,31.87a51.28,51.28,0,0,0-5.75,23c0,17.5,11.5,28.48,22.2,30.83,14.37,2.87,31.35-5.75,40.75-20.64,1.57,11.76,7,19.33,16.2,20.64,10.71,1.56,18-4.18,22.46-8.62,4-3.79,8.37-10.19,11.58-15.62,2.7,13.52,8.27,22.2,16.63,24,11.75,2.35,22.46-3.4,29.78-9.93a51.09,51.09,0,0,0,6.89-7.38,35.16,35.16,0,0,0,11.13,11c7.57,5,17.24,7.57,27.42,7.57a67.12,67.12,0,0,0,28.74-6.79,52,52,0,0,0,18.83-15c1.53,11.31,6.33,18.76,15.38,20.45,10.71,1.82,20.9-2.88,27.43-9.15a63,63,0,0,0,7.17-7.81c2,9.33,6.69,15.45,14.77,17,10.71,1.82,20.89-2.88,27.42-9.15a62.06,62.06,0,0,0,7.28-7.95,35.25,35.25,0,0,0,11,10.83c7.57,5,17.24,7.57,27.42,7.57a67.15,67.15,0,0,0,28.74-6.79c15.93-7.84,21.41-18.28,24.29-23.77C627.42,365.47,627.16,363.38,626.12,362.07ZM320,301.21c5.48-38.91,17-85.41,25.33-82.8,3.92,1.05,5.75,7.32,5.75,16.72,0,11-2.61,26.38-7.84,42.05C334.88,302,324.7,319.24,316.6,328.9,317.38,319.76,318.69,310.36,320,301.21ZM245.81,360a80.42,80.42,0,0,1-6.53,12.28c-6.79,10.45-17.24,21.16-27.95,18-4.7-1.3-6.53-6.53-6.53-13.06,0-6.79,1.83-15.15,3.92-23,3.92-15.15,13.85-39.18,30.56-34.48,8.62,2.61,11,11,11.23,17.5A136.6,136.6,0,0,0,245.81,360Zm123.29-9.92c5.48-24.29,20.9-34,30.56-29.52,3.13,1.31,4.44,4.7,4.44,8.62,0,8.36-5.48,19.85-13.32,26.65-7.84,6.53-17.76,8.88-23.77,9.66A59.77,59.77,0,0,1,369.1,350.06Zm119.63-17.24c-2.88,13.06-4.7,25.08-4.7,35,0,.95,0,1.88.05,2.79a93.59,93.59,0,0,1-6.85,9.49c-3.91,4.18-13.32,11.49-20.89,9.4-3.14-1-4.44-5.22-4.44-11.75,0-11.24,3.65-28.74,6.79-46.24,1.83-8.62,3.39-17.5,5.22-25.86h15.15a4.4,4.4,0,0,0,4.18-3,4.41,4.41,0,0,0,4.18,3H495C492.91,315.06,490.56,324.46,488.73,332.82Zm65.82,17.24c5.48-24.29,20.89-34,30.56-29.52,3.13,1.31,4.44,4.7,4.44,8.62,0,8.36-5.49,19.85-13.32,26.65-7.84,6.53-17.76,8.88-23.77,9.66A59.77,59.77,0,0,1,554.55,350.06Z"/><path class="cls-1" d="M337.36,426.51c-.31,1.82-.67,2.66-1.34,3.14-.46.34-1.08.46-2.88.63s-4.56.24-7.18.24c-4.46,0-5.52-.15-6.34-.92a3.21,3.21,0,0,1-.76-2.44l.19-9.58-.6.33-2.23-2a21.45,21.45,0,0,0,7.53-6.14l3,1.05-.72.84,4-.45,2,1.7a30.82,30.82,0,0,1-3.77,3.43l5.66-.6-.74,8.29h-3.07l.07-.73-8.14.53-.05,2.64c0,.58.15.87.51,1a28.48,28.48,0,0,0,3.84.19c3.81,0,6.89-.26,7.29-.62s.32-.46.48-2.19Zm-14.11-12.08a26.48,26.48,0,0,1-3.55,2.74h.6l3.74-.38a27.07,27.07,0,0,0,3.67-2.93Zm1.37,7,.14-2.42-2.62.24,0,2.35Zm3.12-2.68-.12,2.47,2.78-.19.24-2.55Z"/><path class="cls-1" d="M352.5,427a10.81,10.81,0,0,0,4.78-2c1.42-1.1,2-2.42,2-4.61,0-3.09-1.44-4.75-4.49-5.16a41.24,41.24,0,0,1-2.88,9.92c-.91,2-1.77,2.78-2.95,2.78-2.49,0-5.66-4-5.66-7.08,0-4.47,4.87-8.23,10.68-8.23,5.3,0,8.93,3.24,8.93,8s-2.76,7.73-8.16,9Zm-4.44-9.61a5.43,5.43,0,0,0-1.68,3.41,4.07,4.07,0,0,0,.89,2.38,2.89,2.89,0,0,0,1.27,1c.63,0,2.12-4.35,3-8.69A7.37,7.37,0,0,0,348.06,417.43Z"/><path class="cls-1" d="M389.49,417.55l.21,3.58-20.3,1.2-.22-3.58Z"/><path class="cls-1" d="M395.63,416.35a3.13,3.13,0,0,0,1.56.44,8.33,8.33,0,0,0,1.9-.32,67.18,67.18,0,0,1,10.1-1.56c3.67,0,5.93,2.14,5.93,5.6,0,2.73-1.51,4.75-4.73,6.31a21.5,21.5,0,0,1-5.9,1.78l-1.9-3c5.4-.48,8.79-2.54,8.79-5.4,0-1.71-.77-2.47-2.43-2.47-1.49,0-4.8.69-9.36,2a7.75,7.75,0,0,1-2.33.46,3.43,3.43,0,0,1-1-.14Z"/><path class="cls-1" d="M442.29,417.55l.21,3.58-20.3,1.2-.22-3.58Z"/><path class="cls-1" d="M448.43,416.35a3.13,3.13,0,0,0,1.56.44,8.33,8.33,0,0,0,1.9-.32,67.18,67.18,0,0,1,10.1-1.56c3.67,0,5.93,2.14,5.93,5.6,0,2.73-1.51,4.75-4.73,6.31a21.5,21.5,0,0,1-5.9,1.78l-1.9-3c5.4-.48,8.79-2.54,8.79-5.4,0-1.71-.77-2.47-2.43-2.47-1.49,0-4.8.69-9.36,2a7.75,7.75,0,0,1-2.33.46,3.43,3.43,0,0,1-1-.14Z"/><path class="cls-1" d="M477,430.32a32.64,32.64,0,0,1-.89-7.65,54.83,54.83,0,0,1,1.3-11.12l3.5.75a41,41,0,0,0-1.65,10.8c.21-.41.33-.63,1-1.73l1.53,2a34.47,34.47,0,0,0-2,4.94l.24,1.25Zm8.66-8.57c0,.37,0,.53,0,.72a3.11,3.11,0,0,0,.58,2.12c.6.69,2,1.05,3.84,1.05a17.68,17.68,0,0,0,4-.5l.62,3.22a19.48,19.48,0,0,1-3.93.38c-5.43,0-7.8-1.63-7.8-5.38,0-.12,0-.36,0-.65Zm-.14-2.9,1.51-1.32a10.62,10.62,0,0,1-1.25.05,11.51,11.51,0,0,1-2.25-.19l-.27-2.88a16.44,16.44,0,0,0,2.45.16,22.28,22.28,0,0,0,6.72-1l.75,2.71-.94.29a30.43,30.43,0,0,0-4.78,3.6Z"/><path class="cls-1" d="M506.37,425a25,25,0,0,1-1.42,5.23l-3.34-1a21.35,21.35,0,0,0,1.64-4.94ZM503.42,411h3.09l.07.68,12-1-.62,11.59h-3.05l.05-.91-7.4.43.08.86h-3.05Zm5.8,13.23c1.08,2.54,3.51,3.86,7,3.86.48,0,.62-.09.62-.48a13.64,13.64,0,0,0-.26-1.87L520,427.4a6.27,6.27,0,0,1,0,.74c0,2.47-.41,2.83-3.07,2.83a15.25,15.25,0,0,1-6.75-1.41,8.81,8.81,0,0,1-3.65-4.2Zm.17-8.57v-1.78l-2.59.22.17,1.75Zm0,3.82V417.7l-2.23.17.17,1.68Zm2.83,2.49a22.24,22.24,0,0,1,3.08,2.4L513,426.53a18.41,18.41,0,0,0-3-2.59Zm.1-4.44v1.78l2.71-.17.24-5.78-2.95.26v1.8l2.16-.19.07,2.13Zm6.36,4.4a39.05,39.05,0,0,1,4.13,2.3l-2,2.64a30.13,30.13,0,0,0-4.15-2.69Z"/><path class="cls-1" d="M533.3,429.27c-3.27-2.6-4.8-7.47-4.78-14.93l3.17-.12c0,4.27.41,6.74,1.27,8.86.62-1,1.54-2.29,2.21-3.2l1.44,2.24a27.73,27.73,0,0,0-2.09,3.71c.48.58.65.77.86,1Zm8.54-14.74a22.45,22.45,0,0,1,6.39,7.87l-2.89,2.09a24.31,24.31,0,0,0-5.78-8.11Z"/><path class="cls-1" d="M570.26,428.67l-14.81,1.61.74-7.2h3.1l-.27,3.81,3.36-.38v-6.22l-6.57.82.6-6.27h3.09l-.24,3.1,3.12-.39V410h3.36v7.08l3.17-.41-.21-2.9h3.14l.48,6.79h-3.14l-.08-1.13-3.36.41v6.24l4.23-.48-.27-3.07H573l.67,7.8H570.4Z"/><path class="cls-1" d="M589.43,411.67c-.43,1.95-.77,3.24-1.1,4.37a8.38,8.38,0,0,1,1-.07c2.4,0,3.55,1.34,3.55,4.18a19.16,19.16,0,0,1-1.66,7.82,2.93,2.93,0,0,1-2.42,1.83c-1.08,0-2.21-.65-3.41-2l.89-2.64a4.42,4.42,0,0,0,1.9,1.32c.67,0,1.58-3.67,1.58-6.29,0-1.08-.22-1.44-.84-1.44a2.11,2.11,0,0,0-.5.05l-.27.05a5.74,5.74,0,0,0-.65.1A45.3,45.3,0,0,1,583,429l-2.67-1.71a34.18,34.18,0,0,0,3.82-7.73c-1.27.29-2.5.53-3.19.65l-.63-2.95c3-.5,3.07-.53,4.8-.79a44.29,44.29,0,0,0,1.2-5.38Zm9.31,12.7a8.05,8.05,0,0,0-.43-1.13,16.53,16.53,0,0,0-2.4.51l-1.15-1.92c1.22-.53,1.51-.65,2.4-1a25.22,25.22,0,0,0-3.43-4.78l2.3-1.44a23.57,23.57,0,0,1,5.62,7.87Zm-.88-12.14a16.77,16.77,0,0,1,2.59,2.95l-1.61,1.2a13.61,13.61,0,0,0-2.5-3Zm2-1.78a17.44,17.44,0,0,1,2.64,2.88L601,414.6a14,14,0,0,0-2.59-3Z"/><path class="cls-1" d="M613,427.8a3.24,3.24,0,1,1-3.21-3.24A3.39,3.39,0,0,1,613,427.8Zm-4.8,0a1.56,1.56,0,1,0,1.54-1.56A1.52,1.52,0,0,0,608.15,427.8Z"/><path class="cls-2" d="M15.47,406.25l-.69,2,17,5.85c.4.14.54.35.4.77l-1.28,3.71a.3.3,0,0,1-.42.23l-1.46-.5a.32.32,0,0,1-.24-.46l.72-2.1-17-5.84a.5.5,0,0,1-.36-.73l1.25-3.64a.33.33,0,0,1,.45-.24l1.4.47A.33.33,0,0,1,15.47,406.25Zm7.68-13.82-1.45,4.2c-.13.38-.35.49-.7.37l-4.12-1.41a.51.51,0,0,1-.35-.73L18,390.65a.51.51,0,0,1,.73-.36l4.09,1.41A.5.5,0,0,1,23.15,392.43Zm-4.1-.54-.9,2.62,2.48.86.9-2.63Zm19.08,5.78-1.33,3.86c-.14.42-.36.51-.76.37l-12.55-4.31c-.24-.08-.32-.22-.24-.45l.52-1.52a.31.31,0,0,1,.46-.2l11,3.77.77-2.25a.33.33,0,0,1,.47-.23l1.45.5A.32.32,0,0,1,38.13,397.67Z"/><path class="cls-2" d="M46.58,373.06l-6.09,17.73a.5.5,0,0,1-.71.36L20.71,384.6c-.24-.08-.33-.21-.24-.47l.51-1.47a.33.33,0,0,1,.46-.21l17.52,6,5-14.59-9.72-3.34a.33.33,0,0,1-.24-.45l.5-1.44a.33.33,0,0,1,.47-.23l11.21,3.84A.56.56,0,0,1,46.58,373.06Z"/><path class="cls-2" d="M43.65,359.41l-.42,1.23c-.08.22-.23.27-.39.21l-6.48-2.22-.29.85a.32.32,0,0,1-.43.25l-1.09-.37a.28.28,0,0,1-.18-.41l.78-2.27a.51.51,0,0,1,.68-.35L43.44,359A.32.32,0,0,1,43.65,359.41Zm2.07-6-.43,1.25c-.08.21-.2.27-.39.21l-7.83-2.69c-.23-.08-.29-.2-.23-.39l.44-1.28c.07-.21.2-.28.43-.2L45.49,353C45.71,353,45.79,353.17,45.72,353.39ZM54.81,349l-5,14.45a.28.28,0,0,1-.41.2l-1.33-.46a.28.28,0,0,1-.2-.41l4.46-13-13.6-4.67c-.21-.07-.28-.17-.2-.41l.47-1.37a.29.29,0,0,1,.42-.22l15,5.14A.5.5,0,0,1,54.81,349Z"/><path class="cls-2" d="M54.86,317.2,49.44,333l9.73,3.35a.3.3,0,0,1,.22.44l-.5,1.47c-.08.23-.22.32-.43.24l-20-6.86c-.26-.09-.32-.22-.24-.45l.51-1.49a.33.33,0,0,1,.47-.21l8.06,2.77,5.43-15.82a.32.32,0,0,1,.47-.23l1.47.5A.34.34,0,0,1,54.86,317.2Z"/></g></g></svg>